<svg width="52" height="20" viewBox="0 0 52 20" fill="none" xmlns="http://www.w3.org/2000/svg">
<path d="M4.296 14.544C3.656 14.536 3.072 14.424 2.544 14.208C2.016 13.984 1.56 13.68 1.176 13.296C0.8 12.912 0.508 12.468 0.3 11.964C0.1 11.46 0 10.92 0 10.344C0 9.768 0.1 9.228 0.3 8.724C0.508 8.22 0.8 7.776 1.176 7.392C1.56 7.008 2.016 6.708 2.544 6.492C3.072 6.268 3.656 6.152 4.296 6.144H5.376V7.164H4.332C3.876 7.164 3.456 7.248 3.072 7.416C2.688 7.576 2.352 7.8 2.064 8.088C1.784 8.368 1.564 8.7 1.404 9.084C1.244 9.468 1.164 9.888 1.164 10.344C1.164 10.792 1.244 11.212 1.404 11.604C1.564 11.988 1.784 12.324 2.064 12.612C2.352 12.892 2.688 13.112 3.072 13.272C3.456 13.432 3.876 13.516 4.332 13.524H5.376V14.544H4.296Z" fill="white"/>
<path d="M6.71606 14.544V6.144H7.86806V9.756H12.2961V6.144H13.4481V14.544H12.2961V10.776H7.86806V14.544H6.71606Z" fill="white"/>
<path d="M18.5707 14.688C17.9227 14.688 17.3468 14.552 16.8428 14.28C16.3388 14.008 15.9427 13.616 15.6547 13.104C15.3747 12.592 15.2347 11.988 15.2347 11.292V6.144H16.3867V11.412C16.3867 11.82 16.4747 12.196 16.6507 12.54C16.8267 12.884 17.0787 13.16 17.4067 13.368C17.7347 13.568 18.1227 13.668 18.5707 13.668C19.0187 13.668 19.4068 13.568 19.7348 13.368C20.0628 13.16 20.3108 12.884 20.4788 12.54C20.6547 12.196 20.7428 11.82 20.7428 11.412V6.144H21.8948V11.292C21.8948 11.988 21.7507 12.592 21.4627 13.104C21.1827 13.616 20.7908 14.008 20.2868 14.28C19.7908 14.552 19.2187 14.688 18.5707 14.688Z" fill="white"/>
<path d="M29.3128 14.688C28.8648 14.688 28.4688 14.588 28.1248 14.388C27.7888 14.18 27.5248 13.9 27.3328 13.548C27.1408 13.196 27.0448 12.8 27.0448 12.36V8.172C27.0448 7.956 26.9928 7.76 26.8888 7.584C26.7848 7.408 26.6448 7.268 26.4688 7.164C26.2928 7.06 26.1008 7.008 25.8928 7.008C25.6848 7.008 25.4928 7.06 25.3168 7.164C25.1488 7.268 25.0128 7.408 24.9088 7.584C24.8128 7.76 24.7648 7.956 24.7648 8.172V14.544H23.6128V8.328C23.6128 7.888 23.7088 7.492 23.9008 7.14C24.0928 6.788 24.3608 6.512 24.7048 6.312C25.0488 6.104 25.4448 6 25.8928 6C26.3488 6 26.7488 6.104 27.0928 6.312C27.4368 6.512 27.7048 6.788 27.8968 7.14C28.0888 7.492 28.1848 7.888 28.1848 8.328V12.516C28.1848 12.732 28.2368 12.928 28.3408 13.104C28.4448 13.28 28.5808 13.42 28.7488 13.524C28.9248 13.628 29.1128 13.68 29.3128 13.68C29.5128 13.68 29.6968 13.628 29.8648 13.524C30.0328 13.42 30.1648 13.28 30.2608 13.104C30.3648 12.928 30.4168 12.732 30.4168 12.516V6.144H31.5688V12.36C31.5688 12.8 31.4728 13.196 31.2808 13.548C31.0888 13.9 30.8248 14.18 30.4888 14.388C30.1528 14.588 29.7608 14.688 29.3128 14.688Z" fill="white"/>
<path d="M33.3176 14.544V6.144H34.4696V9.924H36.6536C36.9896 9.924 37.2936 9.864 37.5656 9.744C37.8456 9.616 38.0656 9.432 38.2256 9.192C38.3936 8.944 38.4776 8.652 38.4776 8.316L38.4896 6.144H39.6296V8.304C39.6296 8.856 39.4896 9.336 39.2096 9.744C38.9296 10.144 38.5576 10.448 38.0936 10.656L39.1856 13.152C39.2496 13.28 39.3176 13.376 39.3896 13.44C39.4696 13.496 39.5816 13.524 39.7256 13.524H40.3256V14.544H39.5456C39.1936 14.544 38.9016 14.468 38.6696 14.316C38.4456 14.156 38.2696 13.936 38.1416 13.656L36.9416 10.92C36.8456 10.928 36.7536 10.936 36.6656 10.944C36.5776 10.944 36.4816 10.944 36.3776 10.944H34.4696V14.544H33.3176Z" fill="white"/>
</svg>
